<?xml version="1.0"?>
<svg xmlns="http://www.w3.org/2000/svg" viewBox="0 0 50 50">
    <path style="text-indent:0;text-align:start;line-height:normal;text-transform:none;block-progression:tb;-inkscape-font-specification:Sans" d="M 25.09375 2 C 18.594042 2 13.786036 5.6546198 10.65625 9.75 C 9.0913571 11.79769 7.9326715 13.977325 7.15625 15.90625 C 6.3798285 17.835175 5.96875 19.474968 5.96875 20.71875 C 5.96875 22.731296 6.3716319 24.307095 6.8125 25.375 C 6.8279304 25.412377 6.8593828 25.432479 6.875 25.46875 C 6.2324899 25.6844 5.7083671 26.180704 5.34375 26.8125 C 4.8575939 27.654895 4.59375 28.766901 4.59375 30.125 C 4.59375 32.232153 5.3503855 34.302835 6.375 35.90625 C 7.3996145 37.509665 8.6587746 38.8125 10.3125 38.8125 C 10.345699 38.8125 10.37357 38.813418 10.40625 38.8125 C 10.956837 40.659058 11.972289 42.020443 13.125 42.96875 C 14.825727 44.367897 16.779737 45.027157 17.625 45.46875 C 19.668723 46.537187 21.127072 48 25 48 C 28.873111 48 30.332647 46.536026 32.375 45.46875 C 33.221004 45.02699 35.174376 44.367927 36.875 42.96875 C 38.027641 42.020422 39.043139 40.65905 39.59375 38.8125 C 39.62643 38.813418 39.654301 38.8125 39.6875 38.8125 C 41.341225 38.8125 42.600385 37.509665 43.625 35.90625 C 44.649615 34.302835 45.40625 32.232153 45.40625 30.125 C 45.40625 28.766901 45.142406 27.654895 44.65625 26.8125 C 44.304557 26.203098 43.799876 25.727942 43.1875 25.5 C 43.200999 25.467367 43.205405 25.439771 43.21875 25.40625 C 43.643764 24.338676 44.03125 22.765285 44.03125 20.59375 C 44.03125 19.321174 43.634457 17.639815 42.84375 15.71875 C 42.053043 13.797685 40.877028 11.677833 39.3125 9.65625 C 36.183444 5.6130834 31.388333 2 25.09375 2 z M 25.09375 4 C 30.628167 4 34.836056 7.1501666 37.71875 10.875 C 39.160097 12.737417 40.244364 14.740065 40.96875 16.5 C 41.693136 18.259935 42.03125 19.818326 42.03125 20.59375 C 42.03125 22.518215 41.677736 23.848574 41.34375 24.6875 C 41.188848 25.076593 41.066001 25.329347 40.96875 25.5 C 40.442759 25.614709 39.872006 25.805559 39.3125 26.09375 C 39.478183 25.500863 39.675425 24.948445 39.84375 24.53125 C 40.025414 24.29451 41 22.949871 41 21 C 41 20.535787 40.913888 20.385904 40.78125 20.0625 C 40.648612 19.739096 40.45407 19.371896 40.1875 18.9375 C 39.65436 18.068709 38.815664 16.9993 37.59375 15.96875 C 35.149923 13.90765 31.131933 12 25 12 C 18.868067 12 14.850077 13.90765 12.40625 15.96875 C 11.184336 16.9993 10.34564 18.068709 9.8125 18.9375 C 9.5459302 19.371896 9.3513877 19.739096 9.21875 20.0625 C 9.0861123 20.385904 9 20.535787 9 21 C 9 22.799881 9.818566 24.087985 10.09375 24.46875 C 10.26408 24.882955 10.477267 25.45352 10.65625 26.0625 C 10.136363 25.79889 9.6185196 25.647161 9.125 25.53125 C 9.012954 25.333637 8.8643159 25.022047 8.6875 24.59375 C 8.3338681 23.737155 7.96875 22.448204 7.96875 20.71875 C 7.96875 19.967532 8.2880465 18.425012 9 16.65625 C 9.7119535 14.887488 10.778143 12.85381 12.21875 10.96875 C 15.099964 7.1986302 19.341458 4 25.09375 4 z M 27 5.6875 L 24.96875 7.75 L 23.03125 5.71875 C 23.03125 5.71875 20.23825 10.90125 20.28125 11.03125 C 20.32425 11.16125 21.96875 12.0625 21.96875 12.0625 L 23.25 7.78125 L 25.0625 9.84375 L 26.6875 7.84375 L 28.03125 12.125 L 29.71875 11.03125 L 27 5.6875 z M 25 14 C 30.721067 14 34.219577 15.73485 36.3125 17.5 C 37.358961 18.382575 38.041421 19.272385 38.46875 19.96875 C 38.682415 20.316933 38.820485 20.634634 38.90625 20.84375 C 38.949133 20.948308 38.987283 21.044519 39 21.09375 C 38.98343 21.679992 38.822157 22.174996 38.65625 22.5625 C 37.394645 21.529808 32.755373 18 25 18 C 17.244627 18 12.605355 21.529808 11.34375 22.5625 C 11.177843 22.174996 11.01657 21.679992 11 21.09375 C 11.012719 21.04452 11.050875 20.94831 11.09375 20.84375 C 11.17952 20.634634 11.317585 20.316933 11.53125 19.96875 C 11.958579 19.272385 12.641039 18.382575 13.6875 17.5 C 15.780423 15.73485 19.278933 14 25 14 z M 25 20 C 26.992827 20 28.800211 20.287571 30.40625 20.71875 C 28.146698 21.391608 27.09375 23.5625 27.09375 23.5625 A 1.0063276 1.0063276 0 0 0 28.90625 24.4375 C 28.90625 24.4375 29.852188 22.53125 31.78125 22.53125 C 33.02391 22.53125 34.34375 23.5625 34.34375 23.5625 A 1.0083877 1.0083877 0 0 0 35.96875 23.09375 C 36.928405 23.672957 37.414734 24.015686 37.78125 24.3125 C 37.414013 25.268878 37 26.593594 37 27.90625 C 37 28.83483 37.275629 30.211293 37.53125 31.75 C 37.786871 33.288707 38.03125 34.933719 38.03125 35.84375 C 38.03125 38.772429 36.942376 40.327927 35.59375 41.4375 C 34.245124 42.547073 32.629746 43.08126 31.46875 43.6875 C 29.125103 44.912224 28.402889 46 25 46 C 21.596928 46 20.875527 44.913063 18.53125 43.6875 C 17.370513 43.081093 15.755023 42.547103 14.40625 41.4375 C 13.057477 40.327897 11.96875 38.772376 11.96875 35.84375 C 11.96875 34.933719 12.213129 33.288707 12.46875 31.75 C 12.724371 30.211293 13 28.83483 13 27.90625 C 13 26.593594 12.585987 25.268878 12.21875 24.3125 C 12.618903 24.008286 13.199448 23.613225 14.0625 23.09375 A 1.0083877 1.0083877 0 0 0 15.65625 23.5625 C 15.65625 23.5625 16.97609 22.53125 18.21875 22.53125 C 20.147812 22.53125 21.09375 24.4375 21.09375 24.4375 A 1.0063276 1.0063276 0 0 0 22.90625 23.5625 C 22.90625 23.5625 21.853302 21.391608 19.59375 20.71875 C 21.199789 20.287571 23.007173 20 25 20 z M 19.5 26 C 18.671573 26 18 27.097427 18 28.46875 C 18 29.590902 18.445149 30.532051 19.0625 30.84375 C 18.404562 31.75176 18 32.82472 18 34 C 18 34.24591 18.029858 34.482032 18.0625 34.71875 C 14.629896 33.853888 14.25 32.46875 14.25 32.46875 C 14.25 32.46875 13.5625 32.97425 13.5625 35.28125 C 13.5625 37.99925 15.78125 38.125 15.78125 38.125 C 15.78125 38.125 16.03 40.78125 18.375 40.78125 C 19.388 40.78125 19.95425 40.3495 20.03125 40.3125 C 20.16325 40.4465 21.23575 42 22.84375 42 C 24.09375 42 24.96875 41.25 24.96875 41.25 C 24.96875 41.25 25.94825 41.96875 27.28125 41.96875 C 28.79325 41.96875 29.96875 40.34375 29.96875 40.34375 C 29.96875 40.34375 30.5415 40.78125 31.6875 40.78125 C 32.8335 40.78125 33.99325 39.95975 34.28125 38.09375 C 35.21325 38.09375 36.4375 36.921 36.4375 35.375 C 36.4375 33.057 35.75 32.5 35.75 32.5 C 34.983317 33.584164 33.740968 34.265858 31.9375 34.71875 C 31.970142 34.482032 32 34.24591 32 34 C 32 32.82472 31.595438 31.75176 30.9375 30.84375 C 31.554851 30.536188 32 29.590902 32 28.46875 C 32 27.097427 31.328427 26 30.5 26 C 29.671573 26 29 27.097427 29 28.46875 C 29 28.697304 29.027573 28.914816 29.0625 29.125 C 27.903651 28.41849 26.495302 28 25 28 C 23.504698 28 22.096349 28.41849 20.9375 29.125 C 20.972427 28.914028 21 28.697304 21 28.46875 C 21 27.097427 20.328427 26 19.5 26 z M 7.5625 27.34375 C 8.402986 27.34375 9.8163584 27.640738 10.90625 28.71875 C 10.817747 29.410616 10.678094 30.334222 10.5 31.40625 C 10.242121 32.958543 9.96875 34.613781 9.96875 35.84375 C 9.96875 36.146317 9.9785531 36.434234 10 36.71875 C 9.5286152 36.502259 8.7245951 35.87986 8.0625 34.84375 C 7.2283645 33.538415 6.59375 31.742847 6.59375 30.125 C 6.59375 29.032099 6.8124061 28.245855 7.0625 27.8125 C 7.3125939 27.379145 7.5092211 27.34375 7.5625 27.34375 z M 42.4375 27.34375 C 42.49078 27.34375 42.687406 27.37915 42.9375 27.8125 C 43.187594 28.245855 43.40625 29.032099 43.40625 30.125 C 43.40625 31.742847 42.771635 33.538415 41.9375 34.84375 C 41.275405 35.87986 40.471385 36.502259 40 36.71875 C 40.021448 36.434238 40.03125 36.146312 40.03125 35.84375 C 40.03125 34.613781 39.757879 32.958543 39.5 31.40625 C 39.321906 30.334222 39.182253 29.410616 39.09375 28.71875 C 40.183642 27.640738 41.597014 27.34375 42.4375 27.34375 z M 25 30 C 27.863341 30 30 31.887104 30 34 C 30 36.112896 27.863341 38 25 38 C 22.136659 38 20 36.112896 20 34 C 20 31.887104 22.136659 30 25 30 z"/>
</svg>
